<?xml version="1.0" standalone="no"?>
<!DOCTYPE svg PUBLIC "-//W3C//DTD SVG 20010904//EN"
 "http://www.w3.org/TR/2001/REC-SVG-20010904/DTD/svg10.dtd">
<svg version="1.0" xmlns="http://www.w3.org/2000/svg"
 width="700.000000pt" height="700.000000pt" viewBox="0 0 700.000000 700.000000"
 preserveAspectRatio="xMidYMid meet">
<metadata>
Created by potrace 1.11, written by Peter Selinger 2001-2013
</metadata>
<g transform="translate(0.000000,700.000000) scale(0.100000,-0.100000)"
fill="#000000" stroke="none">
<path d="M2958 5905 c-2 -2 -18 -5 -36 -8 -97 -15 -230 -124 -279 -228 -28
-58 -28 -59 -73 -60 -25 0 -61 -2 -80 -4 -73 -5 -197 -16 -235 -20 -106 -11
-239 -27 -254 -30 -9 -1 -41 -6 -71 -10 -313 -40 -658 -116 -907 -200 -327
-111 -636 -313 -748 -489 -37 -58 -64 -154 -59 -206 15 -135 137 -292 295
-375 184 -98 428 -199 574 -236 161 -42 191 -45 215 -24 11 10 20 22 20 26 0
19 -48 50 -109 70 -201 66 -462 180 -512 225 -8 8 -19 14 -24 14 -8 0 -68 46
-129 100 -43 38 -113 141 -121 180 -20 88 -9 134 47 208 60 77 201 162 541
324 46 22 325 122 373 133 10 3 44 12 74 20 53 15 253 63 295 70 223 40 362
59 513 70 26 2 74 6 107 9 218 19 225 19 226 -6 1 -13 1 -26 0 -30 -2 -17 31
-123 50 -161 45 -87 207 -214 281 -220 19 -1 20 -6 13 -91 -4 -50 -8 -93 -10
-96 -1 -3 -6 -42 -9 -88 -4 -45 -9 -88 -11 -95 -2 -6 -7 -50 -10 -97 -3 -47
-7 -98 -9 -115 -2 -16 -7 -64 -10 -106 -4 -42 -9 -87 -11 -100 -2 -13 -6 -51
-10 -84 -3 -33 -8 -73 -10 -90 -2 -16 -7 -52 -10 -80 -3 -27 -8 -63 -10 -80
-2 -16 -9 -64 -14 -105 -6 -41 -13 -95 -16 -120 -6 -42 -12 -81 -35 -217 -5
-32 -12 -71 -14 -88 -9 -54 -38 -230 -42 -250 -2 -11 -7 -33 -10 -50 -3 -16
-17 -88 -31 -160 -14 -71 -27 -143 -30 -160 -2 -16 -6 -36 -8 -43 -5 -13 -72
-320 -81 -367 -2 -11 -17 -87 -34 -169 -46 -223 -55 -372 -33 -534 20 -149 58
-264 115 -348 193 -287 714 -263 870 40 24 46 63 165 73 221 4 22 10 49 13 60
2 11 6 88 8 170 3 134 -7 243 -31 355 -3 14 -8 39 -11 55 -5 30 -35 168 -55
255 -6 25 -13 54 -15 65 -2 11 -6 29 -8 40 -12 55 -67 323 -71 344 -2 14 -9
47 -14 75 -6 28 -13 64 -15 80 -3 16 -10 52 -15 80 -6 28 -12 65 -15 81 -4 27
-30 183 -40 245 -9 49 -46 296 -50 330 -3 19 -11 89 -20 155 -14 108 -21 172
-31 260 -2 17 -6 59 -10 95 -3 36 -8 76 -10 90 -2 14 -7 63 -11 110 -3 47 -8
88 -10 91 -1 3 -6 44 -9 90 -3 46 -7 99 -9 117 -4 27 -9 83 -19 198 -2 12 13
21 59 33 196 55 308 203 323 428 1 9 27 11 104 8 182 -8 341 -16 407 -20 36
-2 108 -7 160 -10 52 -3 115 -7 140 -10 25 -3 74 -7 110 -10 80 -7 157 -15
190 -20 14 -2 54 -6 90 -10 36 -3 76 -8 90 -10 14 -3 45 -7 70 -10 25 -3 74
-10 110 -16 36 -6 79 -13 95 -16 425 -69 816 -202 1044 -356 143 -96 244 -224
258 -325 12 -90 -68 -192 -205 -261 -119 -60 -495 -178 -655 -206 -18 -4 -52
-11 -77 -16 -25 -6 -56 -13 -70 -15 -65 -11 -89 -14 -140 -20 -30 -3 -57 -8
-60 -9 -16 -9 -201 -16 -510 -20 -190 -2 -361 -7 -380 -10 -19 -3 -61 -10 -92
-16 -289 -50 -468 -220 -470 -450 -1 -123 48 -255 121 -326 65 -63 201 -114
346 -130 126 -14 406 -8 540 12 17 2 66 9 110 15 131 18 152 22 260 44 251 52
515 139 800 264 185 81 617 311 671 359 12 10 42 35 67 56 49 40 137 154 174
222 23 43 60 151 69 200 37 201 -60 413 -264 578 -100 81 -174 129 -313 201
-167 87 -410 183 -574 226 -16 5 -64 18 -106 29 -76 21 -318 73 -394 86 -22 4
-44 8 -50 9 -5 2 -32 6 -60 10 -27 4 -61 10 -75 12 -14 2 -61 8 -105 14 -44 6
-91 13 -105 15 -14 3 -47 7 -74 9 -26 3 -65 7 -85 10 -20 3 -63 7 -96 11 -33
3 -81 8 -107 11 -54 6 -99 9 -253 18 -60 4 -123 9 -140 11 -31 4 -332 16 -492
19 -51 1 -94 4 -96 7 -2 2 -20 29 -39 59 -61 96 -147 163 -253 194 -38 12
-197 20 -207 11z"/>
</g>
</svg>
