<?xml version="1.0" encoding="UTF-8"?>
<svg width="96px" height="64px" viewBox="0 0 96 64" version="1.1" xmlns="http://www.w3.org/2000/svg" xmlns:xlink="http://www.w3.org/1999/xlink">
    <!-- Generator: Sketch 61.2 (89653) - https://sketch.com -->
    <title>photels-logo</title>
    <desc>Created with Sketch.</desc>
    <g id="photels-logo" stroke="none" stroke-width="1" fill="none" fill-rule="evenodd">
        <path d="M81.683871,27.9741935 C84.6774194,26.3225806 86.5354839,24.1548387 87.3612903,21.3677419 C88.4967742,17.5483871 86.6387097,14.1419355 81.4774194,11.0451613 C76.8322581,8.25806452 70.4322581,6.29677419 62.2774194,5.16129032 C55.7741935,4.23225806 49.2709677,3.81935484 42.7677419,3.71612903 C42.4580645,2.99354839 42.0451613,2.37419355 41.4258065,1.75483871 C40.2903226,0.619354839 38.9483871,0.103225806 37.2967742,0.103225806 C35.6451613,0.103225806 34.3032258,0.619354839 33.1677419,1.75483871 C32.4451613,2.37419355 32.0322581,3.2 31.7225806,4.02580645 C25.0129032,4.43870968 19.3354839,5.26451613 14.6903226,6.4 C9.21935484,7.74193548 4.98709677,9.70322581 2.09677419,12.4903226 C-0.0709677419,14.5548387 -0.587096774,16.6193548 0.75483871,18.7870968 C1.37419355,19.8193548 2.30322581,20.7483871 3.43870968,21.4709677 C7.15483871,23.4322581 10.5612903,24.7741935 13.5548387,25.2903226 C13.9677419,25.3935484 14.2774194,25.2903226 14.483871,24.9806452 C14.6903226,24.6709677 14.483871,24.3612903 13.7612903,24.0516129 C8.70322581,22.5032258 5.4,20.7483871 3.64516129,18.5806452 C2.2,16.8258065 2.30322581,15.1741935 3.95483871,13.6258065 C4.57419355,13.1096774 5.81290323,12.283871 7.67096774,11.3548387 C13.0387097,8.56774194 19.1290323,6.91612903 26.0451613,6.19354839 C28.316129,5.98709677 30.0709677,5.88387097 31.3096774,5.78064516 L31.516129,5.78064516 C31.516129,7.43225806 32.0322581,8.77419355 33.1677419,9.90967742 C33.9935484,10.7354839 35.0258065,11.3548387 36.1612903,11.5612903 C36.0580645,13.0064516 35.8516129,14.4516129 35.7483871,15.7935484 C35.6451613,16.516129 35.5419355,17.1354839 35.5419355,17.8580645 C34.716129,27.1483871 33.2709677,36.3354839 31.2064516,45.5225806 C30.3806452,49.2387097 29.9677419,51.4064516 29.9677419,51.9225806 C29.6580645,54.8129032 29.9677419,57.2903226 30.7935484,59.4580645 C31.8258065,61.9354839 33.7870968,63.2774194 36.6774194,63.483871 L36.6774194,63.483871 C36.7806452,63.483871 36.9870968,63.483871 37.0903226,63.483871 C37.1935484,63.483871 37.4,63.483871 37.5032258,63.483871 L37.5032258,63.483871 C40.3935484,63.2774194 42.4580645,61.9354839 43.3870968,59.4580645 C44.2129032,57.2903226 44.5225806,54.7096774 44.2129032,51.9225806 C44.2129032,51.3032258 43.8,49.1354839 42.9741935,45.5225806 C40.9096774,36.3354839 39.4645161,27.1483871 38.6387097,17.8580645 C38.5354839,17.1354839 38.4322581,16.516129 38.4322581,15.7935484 C38.3290323,14.4516129 38.1225806,13.1096774 38.0193548,11.6645161 C39.3612903,11.4580645 40.4967742,10.9419355 41.4258065,10.0129032 C42.5612903,8.87741935 43.0774194,7.53548387 43.0774194,5.88387097 C43.0774194,5.78064516 43.0774194,5.78064516 43.0774194,5.67741935 C53.4,5.98709677 61.6580645,6.81290323 67.7483871,8.25806452 C72.6,9.39354839 76.1096774,10.9419355 78.483871,12.8 C80.3419355,14.3483871 81.1677419,15.7935484 80.9612903,17.1354839 C80.6516129,18.4774194 79.4129032,19.5096774 77.1419355,20.4387097 C71.9806452,22.2967742 67.2322581,23.3290323 62.7935484,23.6387097 C58.6645161,23.6387097 55.7741935,23.6387097 54.2258065,23.7419355 C49.5806452,24.0516129 46.8967742,25.7032258 46.0709677,28.4903226 C45.7612903,29.5225806 45.7612903,30.6580645 46.0709677,31.7935484 C46.3806452,32.8258065 46.7935484,33.5483871 47.3096774,34.1677419 C49.3741935,36.1290323 53.8129032,36.6451613 60.7290323,35.6129032 C67.3354839,34.7870968 74.2516129,32.2064516 81.683871,27.9741935 L81.683871,27.9741935 Z" id="shape" fill="#82BC00" fill-rule="nonzero"></path>
        <path d="M90.5612903,46.1419355 C90.9741935,46.1419355 91.4531613,46.208 91.8924903,46.2872774 L92.2129032,46.3483871 L92.1096774,47.6903226 C91.6967742,47.483871 91.0774194,47.3806452 90.5612903,47.3806452 C89.3225806,47.3806452 88.8064516,47.7935484 88.8064516,48.6193548 C88.8064516,49.2387097 89.2193548,49.6516129 89.8387097,49.8580645 C90.4580645,50.1677419 91.1806452,50.3741935 91.8,50.7870968 C92.4193548,51.2 92.8322581,51.8193548 92.8322581,52.7483871 C92.8322581,53.6774194 92.5225806,54.4 91.9032258,54.916129 C91.283871,55.4322581 90.3548387,55.7419355 89.3225806,55.7419355 C88.7032258,55.6534562 88.083871,55.6408163 87.5295213,55.5090003 L87.2580645,55.4322581 L87.4645161,53.9870968 C88.083871,54.2967742 88.8064516,54.4 89.5290323,54.4 C90.0451613,54.4 90.4580645,54.2967742 90.7677419,54.0903226 C91.0774194,53.7806452 91.283871,53.4709677 91.283871,52.9548387 C91.1806452,52.3354839 90.7677419,51.9225806 90.1483871,51.716129 C89.5290323,51.4064516 88.8064516,51.0967742 88.1870968,50.7870968 C87.5677419,50.4774194 87.1548387,49.7548387 87.1548387,48.8258065 C87.1548387,48 87.4645161,47.3806452 88.083871,46.8645161 C88.6,46.4516129 89.4258065,46.1419355 90.5612903,46.1419355 Z M62.1741935,46.2451613 C63.4129032,46.2451613 64.4451613,46.5548387 65.1677419,47.3806452 C65.8903226,48.2064516 66.3032258,49.3419355 66.3032258,50.8903226 C66.2,52.4387097 65.7870968,53.6774194 64.9612903,54.5032258 C64.1354839,55.3290323 63.1032258,55.7419355 61.8645161,55.7419355 C60.5225806,55.7419355 59.4903226,55.3290323 58.7677419,54.5032258 C58.0451613,53.6774194 57.7354839,52.5419355 57.7354839,51.0967742 C57.8387097,49.5483871 58.2516129,48.3096774 59.0774194,47.483871 C59.9032258,46.6580645 60.9354839,46.2451613 62.1741935,46.2451613 Z M79.8258065,46.3483871 L79.8258065,47.5870968 L76.4193548,47.5870968 L76.4193548,50.2709677 L79.6193548,50.2709677 L79.6193548,51.4064516 L76.4193548,51.4064516 L76.4193548,54.2967742 L79.8258065,54.2967742 L79.8258065,55.5354839 L74.9741935,55.5354839 L74.9741935,46.3483871 L79.8258065,46.3483871 Z M73.6322581,46.3483871 L73.6322581,47.5870968 L71.1548387,47.5870968 L71.1548387,55.5354839 L69.6064516,55.5354839 L69.6064516,47.5870968 L67.1290323,47.5870968 L67.1290323,46.3483871 L73.6322581,46.3483871 Z M83.2322581,46.3483871 L83.2322581,54.1935484 L86.4322581,54.1935484 L86.4322581,55.5354839 L81.683871,55.5354839 L81.683871,46.3483871 L83.2322581,46.3483871 Z M50.3032258,46.3483871 L50.3032258,50.1677419 L54.6387097,50.1677419 L54.6387097,46.3483871 L56.083871,46.3483871 L56.083871,55.5354839 L54.6387097,55.5354839 L54.6387097,51.4064516 L50.3032258,51.4064516 L50.3032258,55.5354839 L48.7548387,55.5354839 L48.7548387,46.3483871 L50.3032258,46.3483871 Z M61.9677419,47.5870968 C61.2451613,47.5870968 60.6258065,47.8967742 60.1096774,48.4129032 C59.5935484,48.9290323 59.283871,49.7548387 59.283871,50.8903226 C59.283871,51.9225806 59.5935484,52.8516129 59.9032258,53.5741935 C60.4193548,54.1935484 61.0387097,54.5032258 61.9677419,54.5032258 C62.6903226,54.5032258 63.3096774,54.1935484 63.8258065,53.6774194 C64.3419355,53.0580645 64.6516129,52.2322581 64.6516129,51.0967742 C64.6516129,48.8258065 63.7225806,47.5870968 61.9677419,47.5870968 Z" id="text" fill="#FFFFFF" fill-rule="nonzero"></path>
    </g>
</svg>